Coordinates
version=1
nRows=9
nColumns=42
inDegrees=yes

Units are S.I. units (second, meters, Newtons, ...)
If the header above contains a line with 'inDegrees', this indicates whether rotational values are in degrees (yes) or radians (no).

endheader
time	pelvis_tilt	pelvis_list	pelvis_rotation	pelvis_tx	pelvis_ty	pelvis_tz	hip_flexion_r	hip_adduction_r	hip_rotation_r	knee_angle_r	knee_adduction_r	knee_angle_r_beta	ankle_angle_r	subtalar_angle_r	mtp_angle_r	hip_flexion_l	hip_adduction_l	hip_rotation_l	knee_angle_l	knee_adduction_l	knee_angle_l_beta	ankle_angle_l	subtalar_angle_l	mtp_angle_l	lumbar_extension	lumbar_bending	lumbar_rotation	arm_flex_r	arm_add_r	arm_rot_r	elbow_flex_r	pro_sup_r	wrist_flex_r	wrist_dev_r	arm_flex_l	arm_add_l	arm_rot_l	elbow_flex_l	pro_sup_l	wrist_flex_l	wrist_dev_l
      1.77000000	     -4.81749675	      0.11128973	     -8.06919155	     -0.64999470	      0.86048148	      0.25745919	     25.53569894	     -0.37020591	      3.77449800	     62.08969272	      5.41369545	      1.08366957	      0.96159283	    -15.78602622	     -7.50618423	     10.87035853	     -3.88865497	     -5.35105788	     14.86370490	     10.28247685	      0.25942059	     11.56557741	     -9.60650154	     -7.50618423	     -7.14219558	     -1.27338725	      5.19215868	      4.62603943	    -18.58817495	     15.85702276	     39.45918147	     90.00000001	      0.00000000	      0.00000000	      4.31351101	    -14.05898277	    -18.85067524	     31.28559932	     90.00000001	      0.00000000	      0.00000000
      1.78000000	     -4.94786070	      0.08389546	     -7.97296358	     -0.63909676	      0.86064084	      0.25721127	     26.95820623	     -0.14628476	      3.60482048	     60.40256041	      5.49341640	      1.05422356	      1.12469009	    -15.28230588	     -7.50610855	     10.01186764	     -3.68628850	     -5.83616471	     14.52585430	      9.99322016	      0.25352398	     11.74774257	     -9.30860861	     -7.50610855	     -7.02115399	     -1.10204817	      4.79739496	      4.04165617	    -18.54535630	     15.90139670	     39.03347257	     90.00000001	      0.00000000	      0.00000000	      4.77719238	    -14.15012858	    -18.66102755	     31.93580318	     90.00000001	      0.00000000	      0.00000000
      1.79000000	     -4.85477419	     -0.25833786	     -8.01724928	     -0.62795063	      0.86095200	      0.25738150	     27.81668465	      0.55724243	      4.33910694	     58.15705023	      6.16284522	      1.01503201	      1.28653786	    -15.85235600	     -7.50558835	      8.39959012	     -3.88075112	     -5.20214175	     13.19117680	     10.15193204	      0.23022947	     12.33931693	     -9.16208768	     -7.50558835	     -7.17671775	     -0.64496245	      4.60619186	      4.22634323	    -18.11720468	     15.86396630	     36.07903807	     90.00000001	      0.00000000	      0.00000000	      3.91724740	    -14.44580572	    -16.40412926	     35.22954201	     90.00000001	      0.00000000	      0.00000000
      1.80000000	     -4.80732877	     -0.47779179	     -7.94826607	     -0.61678240	      0.86088762	      0.25736938	     28.69222568	      0.98090162	      4.28677770	     55.72384539	      6.34454440	      0.97256457	      1.34218771	    -15.62659751	     -7.50541222	      7.07002600	     -3.95332380	     -5.12556992	     12.34432851	     10.16956558	      0.21544918	     12.89737648	     -8.67477195	     -7.50541222	     -7.25916920	     -0.29967603	      4.40967759	      3.65218200	    -18.10178962	     15.82306940	     35.26739778	     90.00000001	      0.00000000	      0.00000000	      4.23903440	    -14.48415997	    -15.99808110	     36.35161192	     90.00000001	      0.00000000	      0.00000000
      1.81000000	     -4.87545784	     -0.56653789	     -7.88209498	     -0.60563773	      0.86040191	      0.25728733	     29.63965381	      1.25932097	      4.02987624	     53.08270528	      6.33891957	      0.92646798	      1.31134352	    -15.21083549	     -7.50531019	      6.00836253	     -3.85339586	     -5.37871693	     11.77243336	      9.99973149	      0.20546772	     13.27210615	     -8.28539417	     -7.50531019	     -7.16437643	     -0.08496807	      4.23629095	      2.95804382	    -18.18066948	     15.78585444	     34.62263740	     90.00000001	      0.00000000	      0.00000000	      4.60529239	    -14.45135368	    -15.72923654	     37.30161721	     90.00000001	      0.00000000	      0.00000000
      1.82000000	     -4.75072638	     -0.71927082	     -7.74260658	     -0.59436336	      0.85989493	      0.25734507	     30.17298925	      1.53019195	      4.10380058	     50.08208812	      6.65039665	      0.87409733	      0.89847207	    -15.57876680	     -7.50497790	      4.51300390	     -3.89715215	     -4.94248918	     10.71015705	     10.19374904	      0.18692750	     13.86970973	     -7.98354312	     -7.50497790	     -7.31858769	      0.14429207	      3.86692177	      2.83055246	    -17.84544864	     15.39472115	     32.80727002	     90.00000001	      0.00000000	      0.00000000	      4.10536442	    -14.77009579	    -14.49526422	     40.03186267	     90.00000001	      0.00000000	      0.00000000
      1.83000000	     -4.67407213	     -0.85527359	     -7.60147424	     -0.58304269	      0.85910600	      0.25732926	     30.65805226	      1.73732367	      3.73026342	     46.87621062	      6.64435009	      0.81814422	      0.63137454	    -15.28091616	     -7.50478012	      3.21697367	     -3.88657511	     -4.87923581	      9.99337896	     10.18486123	      0.17441737	     14.41172329	     -7.56570510	     -7.50478012	     -7.39760888	      0.39360609	      3.62779658	      2.29339568	    -17.88749125	     15.11730992	     32.03920728	     90.00000001	      0.00000000	      0.00000000	      4.21798469	    -14.85828795	    -13.97319092	     41.42515850	     90.00000001	      0.00000000	      0.00000000
      1.84000000	     -4.61263213	     -0.88614519	     -7.40308557	     -0.57165293	      0.85801352	      0.25738645	     31.07132830	      1.82036412	      3.38611149	     43.51430830	      6.62912767	      0.75946795	      0.24644274	    -15.02348125	     -7.50450049	      1.96806423	     -3.83369075	     -4.82285992	      9.32260380	     10.30527072	      0.16271013	     14.91073670	     -7.19747641	     -7.50450049	     -7.43309293	      0.47584442	      3.31547445	      1.76174881	    -17.74531937	     14.61989024	     30.97039260	     90.00000001	      0.00000000	      0.00000000	      4.06295542	    -15.10413843	    -13.20857361	     43.42209665	     90.00000001	      0.00000000	      0.00000000
      1.85000000	     -4.51228744	     -0.94560311	     -7.17470104	     -0.56016268	      0.85674562	      0.25742633	     31.29818433	      1.87357647	      2.86242707	     39.97053016	      6.53097865	      0.69761736	     -0.03862001	    -14.34934521	     -7.50434327	      0.71672932	     -3.83038902	     -4.91251741	      8.76828960	     10.43251512	      0.15303552	     15.48830033	     -6.74060842	     -7.50434327	     -7.50724551	      0.60687780	      3.02230683	      1.15000562	    -17.76632607	     14.30986597	     30.33385740	     90.00000001	      0.00000000	      0.00000000	      4.15647776	    -15.18468453	    -12.79945896	     44.76048802	     90.00000001	      0.00000000	      0.00000000
